<mxfile host="app.diagrams.net" modified="2023-06-03T15:54:29.337Z" agent="Mozilla/5.0 (Macintosh; Intel Mac OS X 10_15_7) AppleWebKit/605.1.15 (KHTML, like Gecko) Version/16.5 Safari/605.1.15" etag="ETfAFoRnQwxsG4tHJ79O" version="21.3.7" type="github">
  <diagram id="C5RBs43oDa-KdzZeNtuy" name="Page-1">
    <mxGraphModel dx="783" dy="1727" grid="1" gridSize="10" guides="1" tooltips="1" connect="1" arrows="1" fold="1" page="1" pageScale="1" pageWidth="827" pageHeight="1169" math="0" shadow="0">
      <root>
        <mxCell id="WIyWlLk6GJQsqaUBKTNV-0" />
        <mxCell id="WIyWlLk6GJQsqaUBKTNV-1" parent="WIyWlLk6GJQsqaUBKTNV-0" />
        <mxCell id="uVs-Nv6jlAoJ_Hm7bL9C-0" value="Instrumente" style="swimlane;fontStyle=2;align=center;verticalAlign=top;childLayout=stackLayout;horizontal=1;startSize=26;horizontalStack=0;resizeParent=1;resizeLast=0;collapsible=1;marginBottom=0;rounded=0;shadow=0;strokeWidth=1;" vertex="1" parent="WIyWlLk6GJQsqaUBKTNV-1">
          <mxGeometry x="350" y="-920" width="160" height="168" as="geometry">
            <mxRectangle x="230" y="140" width="160" height="26" as="alternateBounds" />
          </mxGeometry>
        </mxCell>
        <mxCell id="uVs-Nv6jlAoJ_Hm7bL9C-1" value="Pret producător" style="text;align=left;verticalAlign=top;spacingLeft=4;spacingRight=4;overflow=hidden;rotatable=0;points=[[0,0.5],[1,0.5]];portConstraint=eastwest;" vertex="1" parent="uVs-Nv6jlAoJ_Hm7bL9C-0">
          <mxGeometry y="26" width="160" height="26" as="geometry" />
        </mxCell>
        <mxCell id="uVs-Nv6jlAoJ_Hm7bL9C-2" value="Nume producător" style="text;align=left;verticalAlign=top;spacingLeft=4;spacingRight=4;overflow=hidden;rotatable=0;points=[[0,0.5],[1,0.5]];portConstraint=eastwest;rounded=0;shadow=0;html=0;" vertex="1" parent="uVs-Nv6jlAoJ_Hm7bL9C-0">
          <mxGeometry y="52" width="160" height="26" as="geometry" />
        </mxCell>
        <mxCell id="uVs-Nv6jlAoJ_Hm7bL9C-3" value="Tip electric_acus" style="text;align=left;verticalAlign=top;spacingLeft=4;spacingRight=4;overflow=hidden;rotatable=0;points=[[0,0.5],[1,0.5]];portConstraint=eastwest;rounded=0;shadow=0;html=0;" vertex="1" parent="uVs-Nv6jlAoJ_Hm7bL9C-0">
          <mxGeometry y="78" width="160" height="26" as="geometry" />
        </mxCell>
        <mxCell id="uVs-Nv6jlAoJ_Hm7bL9C-4" value="" style="line;html=1;strokeWidth=1;align=left;verticalAlign=middle;spacingTop=-1;spacingLeft=3;spacingRight=3;rotatable=0;labelPosition=right;points=[];portConstraint=eastwest;" vertex="1" parent="uVs-Nv6jlAoJ_Hm7bL9C-0">
          <mxGeometry y="104" width="160" height="8" as="geometry" />
        </mxCell>
        <mxCell id="uVs-Nv6jlAoJ_Hm7bL9C-5" value="Afisare" style="text;align=left;verticalAlign=top;spacingLeft=4;spacingRight=4;overflow=hidden;rotatable=0;points=[[0,0.5],[1,0.5]];portConstraint=eastwest;" vertex="1" parent="uVs-Nv6jlAoJ_Hm7bL9C-0">
          <mxGeometry y="112" width="160" height="28" as="geometry" />
        </mxCell>
        <mxCell id="uVs-Nv6jlAoJ_Hm7bL9C-8" value="Clone" style="text;align=left;verticalAlign=top;spacingLeft=4;spacingRight=4;overflow=hidden;rotatable=0;points=[[0,0.5],[1,0.5]];portConstraint=eastwest;" vertex="1" parent="uVs-Nv6jlAoJ_Hm7bL9C-0">
          <mxGeometry y="140" width="160" height="28" as="geometry" />
        </mxCell>
        <mxCell id="uVs-Nv6jlAoJ_Hm7bL9C-16" value="Chitare" style="swimlane;fontStyle=2;align=center;verticalAlign=top;childLayout=stackLayout;horizontal=1;startSize=26;horizontalStack=0;resizeParent=1;resizeLast=0;collapsible=1;marginBottom=0;rounded=0;shadow=0;strokeWidth=1;" vertex="1" parent="WIyWlLk6GJQsqaUBKTNV-1">
          <mxGeometry x="120" y="-650" width="160" height="120" as="geometry">
            <mxRectangle x="230" y="140" width="160" height="26" as="alternateBounds" />
          </mxGeometry>
        </mxCell>
        <mxCell id="uVs-Nv6jlAoJ_Hm7bL9C-17" value="Nr_corzi" style="text;align=left;verticalAlign=top;spacingLeft=4;spacingRight=4;overflow=hidden;rotatable=0;points=[[0,0.5],[1,0.5]];portConstraint=eastwest;" vertex="1" parent="uVs-Nv6jlAoJ_Hm7bL9C-16">
          <mxGeometry y="26" width="160" height="26" as="geometry" />
        </mxCell>
        <mxCell id="uVs-Nv6jlAoJ_Hm7bL9C-20" value="" style="line;html=1;strokeWidth=1;align=left;verticalAlign=middle;spacingTop=-1;spacingLeft=3;spacingRight=3;rotatable=0;labelPosition=right;points=[];portConstraint=eastwest;" vertex="1" parent="uVs-Nv6jlAoJ_Hm7bL9C-16">
          <mxGeometry y="52" width="160" height="8" as="geometry" />
        </mxCell>
        <mxCell id="uVs-Nv6jlAoJ_Hm7bL9C-21" value="Afisare" style="text;align=left;verticalAlign=top;spacingLeft=4;spacingRight=4;overflow=hidden;rotatable=0;points=[[0,0.5],[1,0.5]];portConstraint=eastwest;" vertex="1" parent="uVs-Nv6jlAoJ_Hm7bL9C-16">
          <mxGeometry y="60" width="160" height="28" as="geometry" />
        </mxCell>
        <mxCell id="uVs-Nv6jlAoJ_Hm7bL9C-22" value="Clone" style="text;align=left;verticalAlign=top;spacingLeft=4;spacingRight=4;overflow=hidden;rotatable=0;points=[[0,0.5],[1,0.5]];portConstraint=eastwest;" vertex="1" parent="uVs-Nv6jlAoJ_Hm7bL9C-16">
          <mxGeometry y="88" width="160" height="28" as="geometry" />
        </mxCell>
        <mxCell id="uVs-Nv6jlAoJ_Hm7bL9C-23" value="Tobe" style="swimlane;fontStyle=2;align=center;verticalAlign=top;childLayout=stackLayout;horizontal=1;startSize=26;horizontalStack=0;resizeParent=1;resizeLast=0;collapsible=1;marginBottom=0;rounded=0;shadow=0;strokeWidth=1;" vertex="1" parent="WIyWlLk6GJQsqaUBKTNV-1">
          <mxGeometry x="350" y="-650" width="160" height="120" as="geometry">
            <mxRectangle x="230" y="140" width="160" height="26" as="alternateBounds" />
          </mxGeometry>
        </mxCell>
        <mxCell id="uVs-Nv6jlAoJ_Hm7bL9C-24" value="Nr_tobe" style="text;align=left;verticalAlign=top;spacingLeft=4;spacingRight=4;overflow=hidden;rotatable=0;points=[[0,0.5],[1,0.5]];portConstraint=eastwest;" vertex="1" parent="uVs-Nv6jlAoJ_Hm7bL9C-23">
          <mxGeometry y="26" width="160" height="26" as="geometry" />
        </mxCell>
        <mxCell id="uVs-Nv6jlAoJ_Hm7bL9C-27" value="" style="line;html=1;strokeWidth=1;align=left;verticalAlign=middle;spacingTop=-1;spacingLeft=3;spacingRight=3;rotatable=0;labelPosition=right;points=[];portConstraint=eastwest;" vertex="1" parent="uVs-Nv6jlAoJ_Hm7bL9C-23">
          <mxGeometry y="52" width="160" height="8" as="geometry" />
        </mxCell>
        <mxCell id="uVs-Nv6jlAoJ_Hm7bL9C-28" value="Afisare" style="text;align=left;verticalAlign=top;spacingLeft=4;spacingRight=4;overflow=hidden;rotatable=0;points=[[0,0.5],[1,0.5]];portConstraint=eastwest;" vertex="1" parent="uVs-Nv6jlAoJ_Hm7bL9C-23">
          <mxGeometry y="60" width="160" height="28" as="geometry" />
        </mxCell>
        <mxCell id="uVs-Nv6jlAoJ_Hm7bL9C-29" value="Clone" style="text;align=left;verticalAlign=top;spacingLeft=4;spacingRight=4;overflow=hidden;rotatable=0;points=[[0,0.5],[1,0.5]];portConstraint=eastwest;" vertex="1" parent="uVs-Nv6jlAoJ_Hm7bL9C-23">
          <mxGeometry y="88" width="160" height="28" as="geometry" />
        </mxCell>
        <mxCell id="uVs-Nv6jlAoJ_Hm7bL9C-30" value="Orgi" style="swimlane;fontStyle=2;align=center;verticalAlign=top;childLayout=stackLayout;horizontal=1;startSize=26;horizontalStack=0;resizeParent=1;resizeLast=0;collapsible=1;marginBottom=0;rounded=0;shadow=0;strokeWidth=1;" vertex="1" parent="WIyWlLk6GJQsqaUBKTNV-1">
          <mxGeometry x="580" y="-650" width="160" height="120" as="geometry">
            <mxRectangle x="230" y="140" width="160" height="26" as="alternateBounds" />
          </mxGeometry>
        </mxCell>
        <mxCell id="uVs-Nv6jlAoJ_Hm7bL9C-31" value="Nr_clape" style="text;align=left;verticalAlign=top;spacingLeft=4;spacingRight=4;overflow=hidden;rotatable=0;points=[[0,0.5],[1,0.5]];portConstraint=eastwest;" vertex="1" parent="uVs-Nv6jlAoJ_Hm7bL9C-30">
          <mxGeometry y="26" width="160" height="26" as="geometry" />
        </mxCell>
        <mxCell id="uVs-Nv6jlAoJ_Hm7bL9C-34" value="" style="line;html=1;strokeWidth=1;align=left;verticalAlign=middle;spacingTop=-1;spacingLeft=3;spacingRight=3;rotatable=0;labelPosition=right;points=[];portConstraint=eastwest;" vertex="1" parent="uVs-Nv6jlAoJ_Hm7bL9C-30">
          <mxGeometry y="52" width="160" height="8" as="geometry" />
        </mxCell>
        <mxCell id="uVs-Nv6jlAoJ_Hm7bL9C-35" value="Afisare" style="text;align=left;verticalAlign=top;spacingLeft=4;spacingRight=4;overflow=hidden;rotatable=0;points=[[0,0.5],[1,0.5]];portConstraint=eastwest;" vertex="1" parent="uVs-Nv6jlAoJ_Hm7bL9C-30">
          <mxGeometry y="60" width="160" height="28" as="geometry" />
        </mxCell>
        <mxCell id="uVs-Nv6jlAoJ_Hm7bL9C-36" value="Clone" style="text;align=left;verticalAlign=top;spacingLeft=4;spacingRight=4;overflow=hidden;rotatable=0;points=[[0,0.5],[1,0.5]];portConstraint=eastwest;" vertex="1" parent="uVs-Nv6jlAoJ_Hm7bL9C-30">
          <mxGeometry y="88" width="160" height="28" as="geometry" />
        </mxCell>
        <mxCell id="uVs-Nv6jlAoJ_Hm7bL9C-39" value="" style="endArrow=block;endSize=10;endFill=0;shadow=0;strokeWidth=1;rounded=0;edgeStyle=elbowEdgeStyle;elbow=vertical;exitX=0.5;exitY=0;exitDx=0;exitDy=0;" edge="1" parent="WIyWlLk6GJQsqaUBKTNV-1" source="uVs-Nv6jlAoJ_Hm7bL9C-30">
          <mxGeometry width="160" relative="1" as="geometry">
            <mxPoint x="540" y="-650" as="sourcePoint" />
            <mxPoint x="430" y="-752" as="targetPoint" />
            <Array as="points">
              <mxPoint x="450" y="-700" />
            </Array>
          </mxGeometry>
        </mxCell>
        <mxCell id="uVs-Nv6jlAoJ_Hm7bL9C-43" value="" style="endArrow=none;html=1;rounded=0;exitX=0.5;exitY=0;exitDx=0;exitDy=0;" edge="1" parent="WIyWlLk6GJQsqaUBKTNV-1" source="uVs-Nv6jlAoJ_Hm7bL9C-23">
          <mxGeometry width="50" height="50" relative="1" as="geometry">
            <mxPoint x="424" y="-650" as="sourcePoint" />
            <mxPoint x="430" y="-730" as="targetPoint" />
          </mxGeometry>
        </mxCell>
        <mxCell id="uVs-Nv6jlAoJ_Hm7bL9C-45" value="" style="endArrow=none;html=1;rounded=0;" edge="1" parent="WIyWlLk6GJQsqaUBKTNV-1">
          <mxGeometry width="50" height="50" relative="1" as="geometry">
            <mxPoint x="190" y="-650" as="sourcePoint" />
            <mxPoint x="440" y="-700" as="targetPoint" />
            <Array as="points">
              <mxPoint x="190" y="-700" />
              <mxPoint x="310" y="-700" />
            </Array>
          </mxGeometry>
        </mxCell>
        <mxCell id="uVs-Nv6jlAoJ_Hm7bL9C-48" value="Magazin_unic" style="swimlane;fontStyle=2;align=center;verticalAlign=top;childLayout=stackLayout;horizontal=1;startSize=26;horizontalStack=0;resizeParent=1;resizeLast=0;collapsible=1;marginBottom=0;rounded=0;shadow=0;strokeWidth=1;" vertex="1" parent="WIyWlLk6GJQsqaUBKTNV-1">
          <mxGeometry x="70" y="-920" width="160" height="168" as="geometry">
            <mxRectangle x="230" y="140" width="160" height="26" as="alternateBounds" />
          </mxGeometry>
        </mxCell>
        <mxCell id="uVs-Nv6jlAoJ_Hm7bL9C-49" value="Stocul instrumentelor" style="text;align=left;verticalAlign=top;spacingLeft=4;spacingRight=4;overflow=hidden;rotatable=0;points=[[0,0.5],[1,0.5]];portConstraint=eastwest;" vertex="1" parent="uVs-Nv6jlAoJ_Hm7bL9C-48">
          <mxGeometry y="26" width="160" height="26" as="geometry" />
        </mxCell>
        <mxCell id="uVs-Nv6jlAoJ_Hm7bL9C-50" value="Preturi" style="text;align=left;verticalAlign=top;spacingLeft=4;spacingRight=4;overflow=hidden;rotatable=0;points=[[0,0.5],[1,0.5]];portConstraint=eastwest;rounded=0;shadow=0;html=0;" vertex="1" parent="uVs-Nv6jlAoJ_Hm7bL9C-48">
          <mxGeometry y="52" width="160" height="26" as="geometry" />
        </mxCell>
        <mxCell id="uVs-Nv6jlAoJ_Hm7bL9C-51" value="Tip electric_acus" style="text;align=left;verticalAlign=top;spacingLeft=4;spacingRight=4;overflow=hidden;rotatable=0;points=[[0,0.5],[1,0.5]];portConstraint=eastwest;rounded=0;shadow=0;html=0;" vertex="1" parent="uVs-Nv6jlAoJ_Hm7bL9C-48">
          <mxGeometry y="78" width="160" height="26" as="geometry" />
        </mxCell>
        <mxCell id="uVs-Nv6jlAoJ_Hm7bL9C-52" value="" style="line;html=1;strokeWidth=1;align=left;verticalAlign=middle;spacingTop=-1;spacingLeft=3;spacingRight=3;rotatable=0;labelPosition=right;points=[];portConstraint=eastwest;" vertex="1" parent="uVs-Nv6jlAoJ_Hm7bL9C-48">
          <mxGeometry y="104" width="160" height="8" as="geometry" />
        </mxCell>
        <mxCell id="uVs-Nv6jlAoJ_Hm7bL9C-53" value="Add_instrument" style="text;align=left;verticalAlign=top;spacingLeft=4;spacingRight=4;overflow=hidden;rotatable=0;points=[[0,0.5],[1,0.5]];portConstraint=eastwest;" vertex="1" parent="uVs-Nv6jlAoJ_Hm7bL9C-48">
          <mxGeometry y="112" width="160" height="28" as="geometry" />
        </mxCell>
        <mxCell id="uVs-Nv6jlAoJ_Hm7bL9C-54" value="Afisare" style="text;align=left;verticalAlign=top;spacingLeft=4;spacingRight=4;overflow=hidden;rotatable=0;points=[[0,0.5],[1,0.5]];portConstraint=eastwest;" vertex="1" parent="uVs-Nv6jlAoJ_Hm7bL9C-48">
          <mxGeometry y="140" width="160" height="28" as="geometry" />
        </mxCell>
        <mxCell id="uVs-Nv6jlAoJ_Hm7bL9C-57" value="" style="endArrow=open;shadow=0;strokeWidth=1;rounded=0;endFill=1;edgeStyle=elbowEdgeStyle;elbow=horizontal;entryX=0;entryY=0.5;entryDx=0;entryDy=0;" edge="1" parent="WIyWlLk6GJQsqaUBKTNV-1" target="uVs-Nv6jlAoJ_Hm7bL9C-3">
          <mxGeometry x="0.5" y="41" relative="1" as="geometry">
            <mxPoint x="230" y="-830" as="sourcePoint" />
            <mxPoint x="340" y="-830" as="targetPoint" />
            <mxPoint x="-40" y="32" as="offset" />
            <Array as="points">
              <mxPoint x="230" y="-840" />
              <mxPoint x="240" y="-830" />
              <mxPoint x="250" y="-830" />
              <mxPoint x="260" y="-830" />
            </Array>
          </mxGeometry>
        </mxCell>
        <mxCell id="uVs-Nv6jlAoJ_Hm7bL9C-58" value="1" style="resizable=0;align=left;verticalAlign=bottom;labelBackgroundColor=none;fontSize=12;" connectable="0" vertex="1" parent="uVs-Nv6jlAoJ_Hm7bL9C-57">
          <mxGeometry x="-1" relative="1" as="geometry">
            <mxPoint as="offset" />
          </mxGeometry>
        </mxCell>
        <mxCell id="uVs-Nv6jlAoJ_Hm7bL9C-59" value="M(0)" style="resizable=0;align=right;verticalAlign=bottom;labelBackgroundColor=none;fontSize=12;" connectable="0" vertex="1" parent="uVs-Nv6jlAoJ_Hm7bL9C-57">
          <mxGeometry x="1" relative="1" as="geometry">
            <mxPoint y="-1" as="offset" />
          </mxGeometry>
        </mxCell>
        <mxCell id="uVs-Nv6jlAoJ_Hm7bL9C-60" value="contine" style="text;html=1;resizable=0;points=[];;align=center;verticalAlign=middle;labelBackgroundColor=none;rounded=0;shadow=0;strokeWidth=1;fontSize=12;" vertex="1" connectable="0" parent="uVs-Nv6jlAoJ_Hm7bL9C-57">
          <mxGeometry x="0.5" y="49" relative="1" as="geometry">
            <mxPoint x="-31" y="40" as="offset" />
          </mxGeometry>
        </mxCell>
        <mxCell id="uVs-Nv6jlAoJ_Hm7bL9C-67" value="Printare" style="swimlane;fontStyle=2;align=center;verticalAlign=top;childLayout=stackLayout;horizontal=1;startSize=26;horizontalStack=0;resizeParent=1;resizeLast=0;collapsible=1;marginBottom=0;rounded=0;shadow=0;strokeWidth=1;" vertex="1" parent="WIyWlLk6GJQsqaUBKTNV-1">
          <mxGeometry x="350" y="-1070" width="160" height="70" as="geometry">
            <mxRectangle x="230" y="140" width="160" height="26" as="alternateBounds" />
          </mxGeometry>
        </mxCell>
        <mxCell id="uVs-Nv6jlAoJ_Hm7bL9C-71" value="" style="line;html=1;strokeWidth=1;align=left;verticalAlign=middle;spacingTop=-1;spacingLeft=3;spacingRight=3;rotatable=0;labelPosition=right;points=[];portConstraint=eastwest;" vertex="1" parent="uVs-Nv6jlAoJ_Hm7bL9C-67">
          <mxGeometry y="26" width="160" height="8" as="geometry" />
        </mxCell>
        <mxCell id="uVs-Nv6jlAoJ_Hm7bL9C-72" value="Afisare" style="text;align=left;verticalAlign=top;spacingLeft=4;spacingRight=4;overflow=hidden;rotatable=0;points=[[0,0.5],[1,0.5]];portConstraint=eastwest;" vertex="1" parent="uVs-Nv6jlAoJ_Hm7bL9C-67">
          <mxGeometry y="34" width="160" height="28" as="geometry" />
        </mxCell>
        <mxCell id="uVs-Nv6jlAoJ_Hm7bL9C-75" value="" style="endArrow=block;endSize=10;endFill=0;shadow=0;strokeWidth=1;rounded=0;edgeStyle=elbowEdgeStyle;elbow=vertical;exitX=0.5;exitY=0;exitDx=0;exitDy=0;entryX=0.5;entryY=1;entryDx=0;entryDy=0;" edge="1" parent="WIyWlLk6GJQsqaUBKTNV-1" source="uVs-Nv6jlAoJ_Hm7bL9C-0" target="uVs-Nv6jlAoJ_Hm7bL9C-67">
          <mxGeometry width="160" relative="1" as="geometry">
            <mxPoint x="430" y="-930" as="sourcePoint" />
            <mxPoint x="430" y="-1070" as="targetPoint" />
            <Array as="points">
              <mxPoint x="470" y="-980" />
            </Array>
          </mxGeometry>
        </mxCell>
        <mxCell id="uVs-Nv6jlAoJ_Hm7bL9C-76" value="Id_gen" style="swimlane;fontStyle=2;align=center;verticalAlign=top;childLayout=stackLayout;horizontal=1;startSize=26;horizontalStack=0;resizeParent=1;resizeLast=0;collapsible=1;marginBottom=0;rounded=0;shadow=0;strokeWidth=1;" vertex="1" parent="WIyWlLk6GJQsqaUBKTNV-1">
          <mxGeometry x="600" y="-890" width="160" height="120" as="geometry">
            <mxRectangle x="230" y="140" width="160" height="26" as="alternateBounds" />
          </mxGeometry>
        </mxCell>
        <mxCell id="uVs-Nv6jlAoJ_Hm7bL9C-77" value="id_curent" style="text;align=left;verticalAlign=top;spacingLeft=4;spacingRight=4;overflow=hidden;rotatable=0;points=[[0,0.5],[1,0.5]];portConstraint=eastwest;" vertex="1" parent="uVs-Nv6jlAoJ_Hm7bL9C-76">
          <mxGeometry y="26" width="160" height="26" as="geometry" />
        </mxCell>
        <mxCell id="uVs-Nv6jlAoJ_Hm7bL9C-78" value="id" style="text;align=left;verticalAlign=top;spacingLeft=4;spacingRight=4;overflow=hidden;rotatable=0;points=[[0,0.5],[1,0.5]];portConstraint=eastwest;rounded=0;shadow=0;html=0;" vertex="1" parent="uVs-Nv6jlAoJ_Hm7bL9C-76">
          <mxGeometry y="52" width="160" height="26" as="geometry" />
        </mxCell>
        <mxCell id="uVs-Nv6jlAoJ_Hm7bL9C-80" value="" style="line;html=1;strokeWidth=1;align=left;verticalAlign=middle;spacingTop=-1;spacingLeft=3;spacingRight=3;rotatable=0;labelPosition=right;points=[];portConstraint=eastwest;" vertex="1" parent="uVs-Nv6jlAoJ_Hm7bL9C-76">
          <mxGeometry y="78" width="160" height="8" as="geometry" />
        </mxCell>
        <mxCell id="uVs-Nv6jlAoJ_Hm7bL9C-81" value="get_Id" style="text;align=left;verticalAlign=top;spacingLeft=4;spacingRight=4;overflow=hidden;rotatable=0;points=[[0,0.5],[1,0.5]];portConstraint=eastwest;" vertex="1" parent="uVs-Nv6jlAoJ_Hm7bL9C-76">
          <mxGeometry y="86" width="160" height="28" as="geometry" />
        </mxCell>
        <mxCell id="uVs-Nv6jlAoJ_Hm7bL9C-89" value="" style="endArrow=block;endSize=10;endFill=0;shadow=0;strokeWidth=1;rounded=0;edgeStyle=elbowEdgeStyle;elbow=vertical;" edge="1" parent="WIyWlLk6GJQsqaUBKTNV-1">
          <mxGeometry width="160" relative="1" as="geometry">
            <mxPoint x="430" y="-740" as="sourcePoint" />
            <mxPoint x="680" y="-770" as="targetPoint" />
            <Array as="points">
              <mxPoint x="550" y="-730" />
            </Array>
          </mxGeometry>
        </mxCell>
        <mxCell id="uVs-Nv6jlAoJ_Hm7bL9C-110" value="Producator" style="swimlane;fontStyle=2;align=center;verticalAlign=top;childLayout=stackLayout;horizontal=1;startSize=26;horizontalStack=0;resizeParent=1;resizeLast=0;collapsible=1;marginBottom=0;rounded=0;shadow=0;strokeWidth=1;" vertex="1" parent="WIyWlLk6GJQsqaUBKTNV-1">
          <mxGeometry x="360" y="-220" width="160" height="90" as="geometry">
            <mxRectangle x="230" y="140" width="160" height="26" as="alternateBounds" />
          </mxGeometry>
        </mxCell>
        <mxCell id="uVs-Nv6jlAoJ_Hm7bL9C-111" value="" style="line;html=1;strokeWidth=1;align=left;verticalAlign=middle;spacingTop=-1;spacingLeft=3;spacingRight=3;rotatable=0;labelPosition=right;points=[];portConstraint=eastwest;" vertex="1" parent="uVs-Nv6jlAoJ_Hm7bL9C-110">
          <mxGeometry y="26" width="160" height="8" as="geometry" />
        </mxCell>
        <mxCell id="uVs-Nv6jlAoJ_Hm7bL9C-112" value="CreareInstr" style="text;align=left;verticalAlign=top;spacingLeft=4;spacingRight=4;overflow=hidden;rotatable=0;points=[[0,0.5],[1,0.5]];portConstraint=eastwest;" vertex="1" parent="uVs-Nv6jlAoJ_Hm7bL9C-110">
          <mxGeometry y="34" width="160" height="28" as="geometry" />
        </mxCell>
        <mxCell id="uVs-Nv6jlAoJ_Hm7bL9C-113" value="Ready" style="text;align=left;verticalAlign=top;spacingLeft=4;spacingRight=4;overflow=hidden;rotatable=0;points=[[0,0.5],[1,0.5]];portConstraint=eastwest;" vertex="1" parent="uVs-Nv6jlAoJ_Hm7bL9C-110">
          <mxGeometry y="62" width="160" height="28" as="geometry" />
        </mxCell>
        <mxCell id="uVs-Nv6jlAoJ_Hm7bL9C-114" value="Producator_chitare" style="swimlane;fontStyle=2;align=center;verticalAlign=top;childLayout=stackLayout;horizontal=1;startSize=26;horizontalStack=0;resizeParent=1;resizeLast=0;collapsible=1;marginBottom=0;rounded=0;shadow=0;strokeWidth=1;" vertex="1" parent="WIyWlLk6GJQsqaUBKTNV-1">
          <mxGeometry x="110" y="-360" width="160" height="70" as="geometry">
            <mxRectangle x="230" y="140" width="160" height="26" as="alternateBounds" />
          </mxGeometry>
        </mxCell>
        <mxCell id="uVs-Nv6jlAoJ_Hm7bL9C-115" value="" style="line;html=1;strokeWidth=1;align=left;verticalAlign=middle;spacingTop=-1;spacingLeft=3;spacingRight=3;rotatable=0;labelPosition=right;points=[];portConstraint=eastwest;" vertex="1" parent="uVs-Nv6jlAoJ_Hm7bL9C-114">
          <mxGeometry y="26" width="160" height="8" as="geometry" />
        </mxCell>
        <mxCell id="uVs-Nv6jlAoJ_Hm7bL9C-116" value="CreareInstr" style="text;align=left;verticalAlign=top;spacingLeft=4;spacingRight=4;overflow=hidden;rotatable=0;points=[[0,0.5],[1,0.5]];portConstraint=eastwest;" vertex="1" parent="uVs-Nv6jlAoJ_Hm7bL9C-114">
          <mxGeometry y="34" width="160" height="28" as="geometry" />
        </mxCell>
        <mxCell id="uVs-Nv6jlAoJ_Hm7bL9C-117" value="Producator_orgi" style="swimlane;fontStyle=2;align=center;verticalAlign=top;childLayout=stackLayout;horizontal=1;startSize=26;horizontalStack=0;resizeParent=1;resizeLast=0;collapsible=1;marginBottom=0;rounded=0;shadow=0;strokeWidth=1;" vertex="1" parent="WIyWlLk6GJQsqaUBKTNV-1">
          <mxGeometry x="600" y="-356" width="160" height="70" as="geometry">
            <mxRectangle x="230" y="140" width="160" height="26" as="alternateBounds" />
          </mxGeometry>
        </mxCell>
        <mxCell id="uVs-Nv6jlAoJ_Hm7bL9C-118" value="" style="line;html=1;strokeWidth=1;align=left;verticalAlign=middle;spacingTop=-1;spacingLeft=3;spacingRight=3;rotatable=0;labelPosition=right;points=[];portConstraint=eastwest;" vertex="1" parent="uVs-Nv6jlAoJ_Hm7bL9C-117">
          <mxGeometry y="26" width="160" height="8" as="geometry" />
        </mxCell>
        <mxCell id="uVs-Nv6jlAoJ_Hm7bL9C-119" value="CreareInstr" style="text;align=left;verticalAlign=top;spacingLeft=4;spacingRight=4;overflow=hidden;rotatable=0;points=[[0,0.5],[1,0.5]];portConstraint=eastwest;" vertex="1" parent="uVs-Nv6jlAoJ_Hm7bL9C-117">
          <mxGeometry y="34" width="160" height="28" as="geometry" />
        </mxCell>
        <mxCell id="uVs-Nv6jlAoJ_Hm7bL9C-120" value="Producator_tobe" style="swimlane;fontStyle=2;align=center;verticalAlign=top;childLayout=stackLayout;horizontal=1;startSize=26;horizontalStack=0;resizeParent=1;resizeLast=0;collapsible=1;marginBottom=0;rounded=0;shadow=0;strokeWidth=1;" vertex="1" parent="WIyWlLk6GJQsqaUBKTNV-1">
          <mxGeometry x="360" y="-356" width="160" height="62" as="geometry">
            <mxRectangle x="230" y="140" width="160" height="26" as="alternateBounds" />
          </mxGeometry>
        </mxCell>
        <mxCell id="uVs-Nv6jlAoJ_Hm7bL9C-121" value="" style="line;html=1;strokeWidth=1;align=left;verticalAlign=middle;spacingTop=-1;spacingLeft=3;spacingRight=3;rotatable=0;labelPosition=right;points=[];portConstraint=eastwest;" vertex="1" parent="uVs-Nv6jlAoJ_Hm7bL9C-120">
          <mxGeometry y="26" width="160" height="8" as="geometry" />
        </mxCell>
        <mxCell id="uVs-Nv6jlAoJ_Hm7bL9C-122" value="CreareInstr" style="text;align=left;verticalAlign=top;spacingLeft=4;spacingRight=4;overflow=hidden;rotatable=0;points=[[0,0.5],[1,0.5]];portConstraint=eastwest;" vertex="1" parent="uVs-Nv6jlAoJ_Hm7bL9C-120">
          <mxGeometry y="34" width="160" height="28" as="geometry" />
        </mxCell>
        <mxCell id="uVs-Nv6jlAoJ_Hm7bL9C-123" value="" style="endArrow=block;endSize=10;endFill=0;shadow=0;strokeWidth=1;rounded=0;edgeStyle=elbowEdgeStyle;elbow=vertical;exitX=0.5;exitY=1;exitDx=0;exitDy=0;entryX=0.5;entryY=0;entryDx=0;entryDy=0;" edge="1" parent="WIyWlLk6GJQsqaUBKTNV-1" source="uVs-Nv6jlAoJ_Hm7bL9C-117" target="uVs-Nv6jlAoJ_Hm7bL9C-110">
          <mxGeometry width="160" relative="1" as="geometry">
            <mxPoint x="670" y="-178" as="sourcePoint" />
            <mxPoint x="440" y="-280" as="targetPoint" />
            <Array as="points">
              <mxPoint x="570" y="-250" />
            </Array>
          </mxGeometry>
        </mxCell>
        <mxCell id="uVs-Nv6jlAoJ_Hm7bL9C-124" value="" style="endArrow=none;html=1;rounded=0;" edge="1" parent="WIyWlLk6GJQsqaUBKTNV-1">
          <mxGeometry width="50" height="50" relative="1" as="geometry">
            <mxPoint x="439.5" y="-234" as="sourcePoint" />
            <mxPoint x="440" y="-294" as="targetPoint" />
            <Array as="points">
              <mxPoint x="439.5" y="-264" />
            </Array>
          </mxGeometry>
        </mxCell>
        <mxCell id="uVs-Nv6jlAoJ_Hm7bL9C-125" value="" style="endArrow=none;html=1;rounded=0;exitX=0.5;exitY=1;exitDx=0;exitDy=0;" edge="1" parent="WIyWlLk6GJQsqaUBKTNV-1" source="uVs-Nv6jlAoJ_Hm7bL9C-114">
          <mxGeometry width="50" height="50" relative="1" as="geometry">
            <mxPoint x="190" y="-200" as="sourcePoint" />
            <mxPoint x="440" y="-250" as="targetPoint" />
            <Array as="points">
              <mxPoint x="190" y="-250" />
              <mxPoint x="310" y="-250" />
            </Array>
          </mxGeometry>
        </mxCell>
        <mxCell id="uVs-Nv6jlAoJ_Hm7bL9C-130" value="" style="endArrow=open;shadow=0;strokeWidth=1;rounded=0;endFill=1;edgeStyle=elbowEdgeStyle;elbow=horizontal;entryX=0.5;entryY=1;entryDx=0;entryDy=0;exitX=0.5;exitY=0;exitDx=0;exitDy=0;" edge="1" parent="WIyWlLk6GJQsqaUBKTNV-1" source="uVs-Nv6jlAoJ_Hm7bL9C-114" target="uVs-Nv6jlAoJ_Hm7bL9C-16">
          <mxGeometry x="0.5" y="41" relative="1" as="geometry">
            <mxPoint x="199.5" y="-400" as="sourcePoint" />
            <mxPoint x="200" y="-480" as="targetPoint" />
            <mxPoint x="-40" y="32" as="offset" />
            <Array as="points">
              <mxPoint x="199.5" y="-410" />
              <mxPoint x="209.5" y="-400" />
              <mxPoint x="219.5" y="-400" />
              <mxPoint x="229.5" y="-400" />
            </Array>
          </mxGeometry>
        </mxCell>
        <mxCell id="uVs-Nv6jlAoJ_Hm7bL9C-133" value="produce" style="text;html=1;resizable=0;points=[];;align=center;verticalAlign=middle;labelBackgroundColor=none;rounded=0;shadow=0;strokeWidth=1;fontSize=12;" vertex="1" connectable="0" parent="uVs-Nv6jlAoJ_Hm7bL9C-130">
          <mxGeometry x="0.5" y="49" relative="1" as="geometry">
            <mxPoint x="20" y="40" as="offset" />
          </mxGeometry>
        </mxCell>
        <mxCell id="uVs-Nv6jlAoJ_Hm7bL9C-134" value="1" style="resizable=0;align=left;verticalAlign=bottom;labelBackgroundColor=none;fontSize=12;" connectable="0" vertex="1" parent="WIyWlLk6GJQsqaUBKTNV-1">
          <mxGeometry x="180" y="-360" as="geometry" />
        </mxCell>
        <mxCell id="uVs-Nv6jlAoJ_Hm7bL9C-135" value="M(1)" style="resizable=0;align=right;verticalAlign=bottom;labelBackgroundColor=none;fontSize=12;" connectable="0" vertex="1" parent="WIyWlLk6GJQsqaUBKTNV-1">
          <mxGeometry x="200" y="-510" as="geometry" />
        </mxCell>
        <mxCell id="uVs-Nv6jlAoJ_Hm7bL9C-136" value="" style="endArrow=open;shadow=0;strokeWidth=1;rounded=0;endFill=1;edgeStyle=elbowEdgeStyle;elbow=horizontal;entryX=0.5;entryY=1;entryDx=0;entryDy=0;exitX=0.5;exitY=0;exitDx=0;exitDy=0;" edge="1" parent="WIyWlLk6GJQsqaUBKTNV-1">
          <mxGeometry x="0.5" y="41" relative="1" as="geometry">
            <mxPoint x="425" y="-356" as="sourcePoint" />
            <mxPoint x="435" y="-526" as="targetPoint" />
            <mxPoint x="-40" y="32" as="offset" />
            <Array as="points">
              <mxPoint x="434.5" y="-406" />
              <mxPoint x="444.5" y="-396" />
              <mxPoint x="454.5" y="-396" />
              <mxPoint x="464.5" y="-396" />
            </Array>
          </mxGeometry>
        </mxCell>
        <mxCell id="uVs-Nv6jlAoJ_Hm7bL9C-137" value="produce" style="text;html=1;resizable=0;points=[];;align=center;verticalAlign=middle;labelBackgroundColor=none;rounded=0;shadow=0;strokeWidth=1;fontSize=12;" vertex="1" connectable="0" parent="uVs-Nv6jlAoJ_Hm7bL9C-136">
          <mxGeometry x="0.5" y="49" relative="1" as="geometry">
            <mxPoint x="20" y="40" as="offset" />
          </mxGeometry>
        </mxCell>
        <mxCell id="uVs-Nv6jlAoJ_Hm7bL9C-138" value="" style="endArrow=open;shadow=0;strokeWidth=1;rounded=0;endFill=1;edgeStyle=elbowEdgeStyle;elbow=horizontal;entryX=0.5;entryY=1;entryDx=0;entryDy=0;exitX=0.5;exitY=0;exitDx=0;exitDy=0;" edge="1" parent="WIyWlLk6GJQsqaUBKTNV-1" source="uVs-Nv6jlAoJ_Hm7bL9C-117">
          <mxGeometry x="0.5" y="41" relative="1" as="geometry">
            <mxPoint x="665" y="-360" as="sourcePoint" />
            <mxPoint x="665" y="-530" as="targetPoint" />
            <mxPoint x="-40" y="32" as="offset" />
            <Array as="points">
              <mxPoint x="664.5" y="-410" />
              <mxPoint x="674.5" y="-400" />
              <mxPoint x="684.5" y="-400" />
              <mxPoint x="694.5" y="-400" />
            </Array>
          </mxGeometry>
        </mxCell>
        <mxCell id="uVs-Nv6jlAoJ_Hm7bL9C-139" value="produce" style="text;html=1;resizable=0;points=[];;align=center;verticalAlign=middle;labelBackgroundColor=none;rounded=0;shadow=0;strokeWidth=1;fontSize=12;" vertex="1" connectable="0" parent="uVs-Nv6jlAoJ_Hm7bL9C-138">
          <mxGeometry x="0.5" y="49" relative="1" as="geometry">
            <mxPoint x="20" y="40" as="offset" />
          </mxGeometry>
        </mxCell>
        <mxCell id="uVs-Nv6jlAoJ_Hm7bL9C-140" value="M(1)" style="resizable=0;align=right;verticalAlign=bottom;labelBackgroundColor=none;fontSize=12;" connectable="0" vertex="1" parent="WIyWlLk6GJQsqaUBKTNV-1">
          <mxGeometry x="430" y="-510" as="geometry" />
        </mxCell>
        <mxCell id="uVs-Nv6jlAoJ_Hm7bL9C-141" value="M(1)" style="resizable=0;align=right;verticalAlign=bottom;labelBackgroundColor=none;fontSize=12;" connectable="0" vertex="1" parent="WIyWlLk6GJQsqaUBKTNV-1">
          <mxGeometry x="660" y="-510" as="geometry" />
        </mxCell>
        <mxCell id="uVs-Nv6jlAoJ_Hm7bL9C-142" value="1" style="resizable=0;align=left;verticalAlign=bottom;labelBackgroundColor=none;fontSize=12;" connectable="0" vertex="1" parent="WIyWlLk6GJQsqaUBKTNV-1">
          <mxGeometry x="420" y="-356" as="geometry" />
        </mxCell>
        <mxCell id="uVs-Nv6jlAoJ_Hm7bL9C-143" value="1" style="resizable=0;align=left;verticalAlign=bottom;labelBackgroundColor=none;fontSize=12;" connectable="0" vertex="1" parent="WIyWlLk6GJQsqaUBKTNV-1">
          <mxGeometry x="650" y="-356" as="geometry" />
        </mxCell>
        <mxCell id="uVs-Nv6jlAoJ_Hm7bL9C-144" value="Client" style="swimlane;fontStyle=2;align=center;verticalAlign=top;childLayout=stackLayout;horizontal=1;startSize=26;horizontalStack=0;resizeParent=1;resizeLast=0;collapsible=1;marginBottom=0;rounded=0;shadow=0;strokeWidth=1;" vertex="1" parent="WIyWlLk6GJQsqaUBKTNV-1">
          <mxGeometry x="360" y="-80" width="160" height="70" as="geometry">
            <mxRectangle x="230" y="140" width="160" height="26" as="alternateBounds" />
          </mxGeometry>
        </mxCell>
        <mxCell id="uVs-Nv6jlAoJ_Hm7bL9C-148" value="" style="line;html=1;strokeWidth=1;align=left;verticalAlign=middle;spacingTop=-1;spacingLeft=3;spacingRight=3;rotatable=0;labelPosition=right;points=[];portConstraint=eastwest;" vertex="1" parent="uVs-Nv6jlAoJ_Hm7bL9C-144">
          <mxGeometry y="26" width="160" height="8" as="geometry" />
        </mxCell>
        <mxCell id="uVs-Nv6jlAoJ_Hm7bL9C-149" value="comanda_speciala" style="text;align=left;verticalAlign=top;spacingLeft=4;spacingRight=4;overflow=hidden;rotatable=0;points=[[0,0.5],[1,0.5]];portConstraint=eastwest;" vertex="1" parent="uVs-Nv6jlAoJ_Hm7bL9C-144">
          <mxGeometry y="34" width="160" height="28" as="geometry" />
        </mxCell>
        <mxCell id="uVs-Nv6jlAoJ_Hm7bL9C-152" value="" style="endArrow=open;shadow=0;strokeWidth=1;rounded=0;endFill=1;edgeStyle=elbowEdgeStyle;elbow=horizontal;" edge="1" parent="WIyWlLk6GJQsqaUBKTNV-1">
          <mxGeometry x="0.5" y="41" relative="1" as="geometry">
            <mxPoint x="440.08000000000004" y="-80" as="sourcePoint" />
            <mxPoint x="440" y="-130" as="targetPoint" />
            <mxPoint x="-40" y="32" as="offset" />
            <Array as="points">
              <mxPoint x="439.58000000000004" y="-10" />
              <mxPoint x="449.58000000000004" />
              <mxPoint x="459.58000000000004" />
              <mxPoint x="469.58000000000004" />
            </Array>
          </mxGeometry>
        </mxCell>
        <mxCell id="uVs-Nv6jlAoJ_Hm7bL9C-154" value="apeleaza" style="text;html=1;resizable=0;points=[];;align=center;verticalAlign=middle;labelBackgroundColor=none;rounded=0;shadow=0;strokeWidth=1;fontSize=12;" vertex="1" connectable="0" parent="WIyWlLk6GJQsqaUBKTNV-1">
          <mxGeometry x="470" y="-100" as="geometry" />
        </mxCell>
        <mxCell id="uVs-Nv6jlAoJ_Hm7bL9C-155" value="M(0)" style="resizable=0;align=right;verticalAlign=bottom;labelBackgroundColor=none;fontSize=12;" connectable="0" vertex="1" parent="WIyWlLk6GJQsqaUBKTNV-1">
          <mxGeometry x="440" y="-110" as="geometry" />
        </mxCell>
        <mxCell id="uVs-Nv6jlAoJ_Hm7bL9C-156" value="M(0)" style="resizable=0;align=right;verticalAlign=bottom;labelBackgroundColor=none;fontSize=12;" connectable="0" vertex="1" parent="WIyWlLk6GJQsqaUBKTNV-1">
          <mxGeometry x="440" y="-80" as="geometry" />
        </mxCell>
      </root>
    </mxGraphModel>
  </diagram>
</mxfile>
